<?xml version="1.0" standalone="no"?><!DOCTYPE svg PUBLIC "-//W3C//DTD SVG 1.1//EN" "http://www.w3.org/Graphics/SVG/1.1/DTD/svg11.dtd"><svg t="1642832379958" class="icon" viewBox="0 0 1024 1024" version="1.1" xmlns="http://www.w3.org/2000/svg" p-id="5954" xmlns:xlink="http://www.w3.org/1999/xlink" width="128" height="128"><defs><style type="text/css"></style></defs><path d="M512 469.333333C488.533333 469.333333 469.333333 488.533333 469.333333 512 469.333333 535.466667 488.533333 554.666667 512 554.666667 535.466667 554.666667 554.666667 535.466667 554.666667 512 554.666667 488.533333 535.466667 469.333333 512 469.333333M533.333333 85.333333C725.333333 85.333333 730.026667 237.653333 629.333333 288 587.093333 308.906667 568.32 353.706667 560.213333 393.386667 580.693333 401.92 598.613333 415.146667 612.266667 432.213333 770.133333 346.88 939.946667 380.586667 939.946667 533.333333 939.946667 725.333333 787.626667 729.6 737.28 628.48 715.946667 586.24 670.72 567.466667 631.04 559.36 622.506667 579.84 609.28 597.333333 592.213333 611.84 677.12 769.28 643.413333 938.666667 490.666667 938.666667 298.666667 938.666667 294.826667 785.92 395.52 735.573333 437.333333 714.666667 456.106667 670.293333 464.64 631.04 443.733333 622.506667 425.386667 608.853333 411.733333 591.786667 254.293333 676.266667 85.333333 642.986667 85.333333 490.666667 85.333333 298.666667 237.226667 293.973333 287.573333 395.093333 308.906667 437.333333 353.706667 455.68 393.386667 463.786667 401.493333 443.306667 415.146667 425.386667 432.64 411.733333 347.733333 254.293333 381.44 85.333333 533.333333 85.333333Z" p-id="5955" fill="#336699"></path></svg>