<?xml version="1.0" standalone="no"?><!DOCTYPE svg PUBLIC "-//W3C//DTD SVG 1.1//EN" "http://www.w3.org/Graphics/SVG/1.1/DTD/svg11.dtd"><svg t="1642832884238" class="icon" viewBox="0 0 1024 1024" version="1.1" xmlns="http://www.w3.org/2000/svg" p-id="37151" xmlns:xlink="http://www.w3.org/1999/xlink" width="128" height="128"><defs><style type="text/css"></style></defs><path d="M170.666 170.667a56.889 56.889 0 1 0 113.778 0 56.889 56.889 0 1 0-113.777 0zM56.888 341.333a56.889 56.889 0 1 0 113.779 0 56.889 56.889 0 1 0-113.778 0zM227.556 455.111a56.889 56.889 0 1 0 113.777 0 56.889 56.889 0 1 0-113.777 0zM568.888 455.111a56.889 56.889 0 1 0 113.779 0 56.889 56.889 0 1 0-113.778 0zM568.888 625.778a56.889 56.889 0 1 0 113.779 0 56.889 56.889 0 1 0-113.778 0zM739.556 625.778a56.889 56.889 0 1 0 113.777 0 56.889 56.889 0 1 0-113.777 0zM739.556 455.111a56.889 56.889 0 1 0 113.777 0 56.889 56.889 0 1 0-113.777 0zM113.777 853.333a56.889 56.889 0 1 0 113.779 0 56.889 56.889 0 1 0-113.778 0zM170.667 654.222a85.333 85.333 0 1 0 170.666 0 85.333 85.333 0 1 0-170.666 0z" fill="#1296db" p-id="37152"></path><path d="M398.222 1024l284.445-170.667V739.556h-56.89V819.2L455.112 921.6V159.289l170.667 102.4v79.644h56.889V227.556L398.222 56.889z" fill="#1296db" p-id="37153"></path></svg>