<?xml version="1.0" standalone="no"?><!DOCTYPE svg PUBLIC "-//W3C//DTD SVG 1.1//EN" "http://www.w3.org/Graphics/SVG/1.1/DTD/svg11.dtd"><svg t="1620208761851" class="icon" viewBox="0 0 1119 1024" version="1.1" xmlns="http://www.w3.org/2000/svg" p-id="2037" xmlns:xlink="http://www.w3.org/1999/xlink" width="69.9375" height="64"><defs><style type="text/css"></style></defs><path d="M264.865886 79.334764C282.636584 60.294737 281.607586 30.453733 262.567559 12.683048 243.527518-5.08765 213.686528-4.058651 195.91583 14.981376L16.510046 207.201873C-5.513203 230.798201-5.493491 267.749578 16.510046 291.324793L195.91583 483.54529C213.686528 502.585317 243.527518 503.614316 262.567559 485.843618 281.607586 468.072933 282.636584 438.231929 264.865886 419.191902 264.865886 419.191902 152.71292 288.384418 153.600094 288.384418L1022.652726 288.384418 1022.652726 921.647576 126.652726 921.647576C100.608135 921.647576 79.494831 942.760879 79.494831 968.80547 79.494831 994.850061 100.608135 1015.963365 126.652726 1015.963365L1042.947449 1015.963365C1083.866705 1015.963365 1116.968515 982.728273 1116.968515 941.829942L1116.968515 268.202051C1116.968515 227.227661 1083.825071 194.068628 1042.886373 194.068628L153.734966 194.068628 264.865886 79.334764Z" p-id="2038" fill="#ffffff"></path></svg>