<?xml version="1.0" standalone="no"?><!DOCTYPE svg PUBLIC "-//W3C//DTD SVG 1.1//EN" "http://www.w3.org/Graphics/SVG/1.1/DTD/svg11.dtd"><svg t="1643429359106" class="icon" viewBox="0 0 1024 1024" version="1.1" xmlns="http://www.w3.org/2000/svg" p-id="2795" xmlns:xlink="http://www.w3.org/1999/xlink" width="128" height="128"><defs><style type="text/css"></style></defs><path d="M313.4 512H32c-17.6 0-32 14.4-32 32v64c0 17.6 14.4 32 32 32h284.4c31.8 0 61.6 21.8 66.8 53.2 6.6 40-24.2 74.8-63.2 74.8-28.2 0-52.2-18.4-60.8-43.8-4.2-12.6-17.2-20.2-30.4-20.2H163.2c-19.6 0-35.4 17.6-31.8 36.8 17.2 88.2 95.2 155.2 188.4 155.2 114.2 0 205.4-100.2 190.4-217.2C498 582 410.8 512 313.4 512zM32 448h672c119.4 0 213.6-109.6 187.6-233.4-15.2-72.4-73.8-131-146.2-146.2-110.8-23.2-210.2 49.8-229.8 151-3.8 19.2 12.2 36.6 31.6 36.6h65.6c13.4 0 26.2-7.6 30.4-20.2C651.8 210.4 675.8 192 704 192c38.8 0 69.8 34.8 63.2 74.8-5.2 31.4-34.8 53.2-66.8 53.2H32c-17.6 0-32 14.4-32 32v64c0 17.6 14.4 32 32 32z m768 64H487.4c38.6 33.2 66.4 77.6 79.6 128H800c53 0 96 43 96 96s-43 96-96 96c-35.8 0-66.6-19.8-83.2-48.8-5.8-10-17.4-15.2-29-15.2h-67.6c-21.8 0-38 21.6-30.6 42.2 35.6 101.2 141 169.6 258.8 144.6 82.4-17.4 150.2-83.2 169.4-165.4C1052 643 941 512 800 512z" p-id="2796" fill="#ff6600"></path></svg>