<?xml version="1.0" encoding="UTF-8" standalone="no"?>
<!DOCTYPE svg PUBLIC "-//W3C//DTD SVG 1.1//EN" "http://www.w3.org/Graphics/SVG/1.1/DTD/svg11.dtd">
<svg width="100%" height="100%" viewBox="0 0 64 64" version="1.1" xmlns="http://www.w3.org/2000/svg" xmlns:xlink="http://www.w3.org/1999/xlink" xml:space="preserve" xmlns:serif="http://www.serif.com/" style="fill-rule:evenodd;clip-rule:evenodd;stroke-linejoin:round;stroke-miterlimit:2;">
    <path id="icon-img" d="M16,24C16,26.194 17.806,28 20,28C22.194,28 24,26.194 24,24C24,21.806 22.194,20 20,20C17.806,20 16,21.806 16,24ZM52.668,56L11.332,56C7.29,56 4,52.71 4,48.668L4,15.332C4,11.29 7.29,8 11.332,8L52.668,8C56.71,8 60,11.29 60,15.332L60,48.668C60,52.71 56.71,56 52.668,56ZM11.332,12C9.496,12 8,13.496 8,15.332L8,48.668C8,50.506 9.496,52 11.332,52L52.668,52C54.506,52 56,50.506 56,48.668L56,15.332C56,13.496 54.506,12 52.668,12L11.332,12ZM14,48.062C13.804,48.062 13.604,48.032 13.406,47.97C12.352,47.642 11.762,46.524 12.09,45.47C12.238,44.994 15.85,33.792 23.538,33.992C25.726,34.046 27.558,34.598 29.33,35.132C31.606,35.816 33.574,36.406 36.182,35.99C37.46,35.784 37.988,34.5 38.89,31.616C40.08,27.814 41.878,22.07 49.806,22.07C50.912,22.07 51.806,22.966 51.806,24.07C51.806,25.174 50.912,26.07 49.806,26.07C45.058,26.07 44.014,28.632 42.706,32.812C41.8,35.712 40.668,39.322 36.814,39.938C33.296,40.498 30.578,39.68 28.176,38.962C26.588,38.484 25.086,38.032 23.434,37.992C23.404,37.99 23.374,37.99 23.344,37.99C19.468,37.99 16.664,44.232 15.906,46.656C15.642,47.512 14.852,48.062 14,48.062Z" style="fill:rgb(102,102,102);fill-rule:nonzero;"/>
</svg>
