<?xml version="1.0" standalone="no"?><!DOCTYPE svg PUBLIC "-//W3C//DTD SVG 1.1//EN" "http://www.w3.org/Graphics/SVG/1.1/DTD/svg11.dtd"><svg t="1642831644166" class="icon" viewBox="0 0 1024 1024" version="1.1" xmlns="http://www.w3.org/2000/svg" p-id="4923" xmlns:xlink="http://www.w3.org/1999/xlink" width="128" height="128"><defs><style type="text/css"></style></defs><path d="M225.2 624.6h381.4c9 0 14.2-10.2 9-17.6l-190.8-306.8c-4.4-6.4-13.8-6.4-18.2 0L216 607c-5.2 7.4 0.2 17.6 9.2 17.6z m388.2-116l70 111.4c2 3 5.4 4.8 9 4.8h106.4c9 0 14.2-10.2 9-17.6l-123.2-175.4c-4.4-6.4-13.8-6.4-18.2 0L613.2 496c-2.4 3.6-2.4 8.6 0.2 12.6z m88.8-172.8c26.2-2.6 47.4-23.8 50-50 3.6-35.4-26-65-61.4-61.4-26.2 2.6-47.4 23.8-50 50-3.4 35.4 26 65 61.4 61.4z" p-id="4924" fill="#70B605"></path><path d="M864 96H160c-35.4 0-64 28.6-64 64v704c0 35.4 28.6 64 64 64h704c35.4 0 64-28.6 64-64V160c0-35.4-28.6-64-64-64z m-5.4 560c0 8.8-7.2 16-16 16H181.4c-8.8 0-16-7.2-16-16V181.4c0-8.8 7.2-16 16-16h661.4c8.8 0 16 7.2 16 16V656z" p-id="4925" fill="#70B605"></path></svg>