<?xml version="1.0" encoding="UTF-8" standalone="no"?>
<!DOCTYPE svg PUBLIC "-//W3C//DTD SVG 1.1//EN" "http://www.w3.org/Graphics/SVG/1.1/DTD/svg11.dtd">
<svg width="100%" height="100%" viewBox="0 0 64 64" version="1.1" xmlns="http://www.w3.org/2000/svg" xmlns:xlink="http://www.w3.org/1999/xlink" xml:space="preserve" xmlns:serif="http://www.serif.com/" style="fill-rule:evenodd;clip-rule:evenodd;stroke-linejoin:round;stroke-miterlimit:2;">
    <g id="icon-project">
        <path d="M17.5,47L22.5,47C22.775,47 23,46.775 23,46.5L23,17.5C23,17.225 22.775,17 22.5,17L17.5,17C17.225,17 17,17.225 17,17.5L17,46.5C17,46.775 17.225,47 17.5,47ZM29.5,29.5L34.5,29.5C34.775,29.5 35,29.275 35,29L35,17.5C35,17.225 34.775,17 34.5,17L29.5,17C29.225,17 29,17.225 29,17.5L29,29C29,29.275 29.225,29.5 29.5,29.5ZM41.5,34L46.5,34C46.775,34 47,33.775 47,33.5L47,17.5C47,17.225 46.775,17 46.5,17L41.5,17C41.225,17 41,17.225 41,17.5L41,33.5C41,33.775 41.225,34 41.5,34Z" style="fill:#ffffff;fill-rule:nonzero;"/>
        <path d="M55,7L9,7C7.894,7 7,7.894 7,9L7,55C7,56.106 7.894,57 9,57L55,57C56.106,57 57,56.106 57,55L57,9C57,7.894 56.106,7 55,7ZM52.5,52.5L11.5,52.5L11.5,11.5L52.5,11.5L52.5,52.5Z" style="fill:#ffffff;fill-rule:nonzero;"/>
    </g>
</svg>
