<?xml version="1.0" standalone="no"?><!DOCTYPE svg PUBLIC "-//W3C//DTD SVG 1.1//EN" "http://www.w3.org/Graphics/SVG/1.1/DTD/svg11.dtd"><svg t="1644457748551" class="icon" viewBox="0 0 1024 1024" version="1.1" xmlns="http://www.w3.org/2000/svg" p-id="8843" xmlns:xlink="http://www.w3.org/1999/xlink" width="128" height="128"><defs><style type="text/css"></style></defs><path d="M466.285714 1024h79.872v-140.873143l86.308572 77.970286 56.32-50.907429-142.628572-128.950857V575.634286l222.208 117.028571 52.224 177.883429 76.141715-18.578286-31.817143-108.397714 106.934857 56.32 39.936-63.195429-106.203429-55.954286L1024 651.702857l-20.626286-70.436571-195.730285 47.835428L585.874286 512.292571 808.594286 394.971429l194.925714 47.689142 20.48-69.485714-118.930286-29.037714 107.008-56.32-40.009143-63.122286-106.203428 55.881143 31.744-108.105143-77.165714-18.870857-52.443429 178.468571L546.157714 449.097143V214.308571L689.005714 84.114286 633.197714 33.206857 546.157714 112.64V0H466.285714v111.908571L379.611429 32.768l-56.393143 51.565714L466.285714 215.04v234.276571L270.043429 345.892571l-50.980572-177.225142-75.410286 18.797714 31.085715 108.251428L39.936 224.548571 0 287.817143l133.705143 70.363428-117.174857 29.257143 20.187428 69.997715 193.682286-48.347429 195.730286 103.131429-195.657143 103.131428-193.682286-48.274286-19.894857 69.046858 118.125714 29.476571-134.802285 70.948571 40.009142 63.195429 133.705143-70.363429-30.866285 107.154286 76.434285 19.017143 51.053715-177.078857 195.730285-103.131429v206.189715l-142.628571 128.804571 55.588571 50.249143 87.04-78.628572z" p-id="8844" fill="#1296db"></path></svg>