<?xml version="1.0" standalone="no"?><!DOCTYPE svg PUBLIC "-//W3C//DTD SVG 1.1//EN" "http://www.w3.org/Graphics/SVG/1.1/DTD/svg11.dtd"><svg t="1642832639647" class="icon" viewBox="0 0 1024 1024" version="1.1" xmlns="http://www.w3.org/2000/svg" p-id="25415" xmlns:xlink="http://www.w3.org/1999/xlink" width="128" height="128"><defs><style type="text/css"></style></defs><path d="M181.27636719 248.41777344h66.16054687c36.33925781 0 70.81171875 7.03476537 103.36992188 20.98300806 32.55820311 14.05898412 61.07695287 33.39140601 85.54042969 58.3242185-13.44199193 19.77539063-24.46874975 40.43144506-33.05390652 62.06835963-18.43593775-23.39824219-41.259375-41.73925807-68.4861328-55.25507863-27.1898435-13.394531-56.3203125-20.20781275-87.34921824-20.207812H181.29746119c-9.12304662 0-16.90136745-3.1851565-23.39296926-9.66621093C151.44980443 298.17792994 148.21191406 290.48925807 148.21191406 281.37148437c0-9.1125 3.23789037-16.91191406 9.69257787-23.28749999 6.49160182-6.48105443 14.26464818-9.66621094 23.39296926-9.66621094h-0.021094zM710.49746094 577.97070313c9.12304662 0 16.95410131 3.29589869 23.51953099 9.77695312l132.30000051 131.81484375c6.34394531 6.37031225 9.55019506 14.16972631 9.55019506 23.39824219 0 9.11777369-3.20624975 16.91718775-9.54492213 23.17675781l-132.31054637 131.82011744c-6.35976563 6.37031225-14.21191431 9.55546875-23.51953175 9.55546875-9.12304662 0-16.90136745-3.1851565-23.40351512-9.55546875-6.44414087-6.26484375-9.69257787-14.06425781-9.69257863-23.17675781 0-8.90156225 3.20624975-16.70097631 9.54492213-23.39824219l75.97441431-75.68964869h-52.44433595c-36.37617213 0-70.80644506-6.91875025-103.36992186-20.8669922-32.55820311-13.95351562-61.07167994-33.2859375-85.54042969-58.11328149a321.09960912 321.09960912 0 0 0 33.05390574-62.06308594c18.47285131 23.2875 41.24882838 41.63378881 68.38593801 55.03359426 27.105469 13.40507838 56.24648463 20.1023435 87.44941381 20.10234349h52.46542994l-75.99023463-75.46289062c-6.38085963-6.59179662-9.55546875-14.50195287-9.55546875-23.39824219 0-9.12304662 3.23261744-16.80644557 9.71894557-23.2875 6.44941381-6.48632813 14.25410156-9.66621094 23.38242186-9.66621095h0.02636695z m0-461.36249975c9.12304662 0 16.95410131 3.29589869 23.51953099 9.88769531l132.30000051 131.70410156c6.34394531 6.37031225 9.55019506 14.06425781 9.55019506 23.17675782 0 9.33925807-3.20624975 17.13867213-9.54492213 23.50898437L734.011719 436.589844c-6.35976563 6.37031225-14.21191431 9.55546875-23.51953175 9.55546875-9.12304662 0-16.90136745-3.1851565-23.40351512-9.66621093-6.44414087-6.48105443-9.69257787-14.16972631-9.69257863-23.2875 0-8.78554713 3.20624975-16.47949193 9.54492212-23.17675782l75.97441432-75.684375h-52.44433595c-31.0078125 0-60.12246119 6.69726588-87.33867237 20.207812-27.22148412 13.51582057-50.04492213 31.85683568-68.49140574 55.14433644-28.40800756 36.14414037-42.6304685 76.89726537-42.63046926 122.37011719 0 45.81035131-11.01621119 88.319531-33.06445312 127.64355418-11.72285156 21.09375025-25.9242185 40.09394557-42.64101512 56.90039113-24.46874975 24.94335911-52.98222656 44.27050807-85.54042969 58.21875-32.56347682 13.84277344-67.04121068 20.76679662-103.37519557 20.76679662H181.23417994c-9.12832031 0-16.938281-3.1851565-23.38769557-9.66621094C151.36015625 759.535156 148.1328125 751.74101562 148.1328125 742.62851563c0-9.01230443 3.23261744-16.8117185 9.71367187-23.2927737 6.44941381-6.37031225 14.25937525-9.66621094 23.38769557-9.66621093h66.15527318c31.18183594 0 60.32812525-6.59179662 87.45996121-20.1023435 27.15820287-13.2890625 49.92890625-31.7460935 68.36484323-55.03359351 28.41328125-36.02812525 42.6304685-76.89199244 42.63046926-122.58632862 0-45.81035131 11.02148412-88.319531 33.07499974-127.64355418 11.88632838-21.30996094 26.08769531-40.20468775 42.64101588-56.68417969 24.46874975-24.827344 52.98222656-44.27050807 85.54042969-58.21875 32.56347682-14.05898412 66.99374975-21.09375025 103.36992186-21.09375025h52.44433595l-75.97441431-75.35742213c-6.33867162-6.69726588-9.54492213-14.49667994-9.54492213-23.39296849 0-9.11777369 3.24843775-16.91718775 9.69257863-23.39824219C693.59082057 119.78808619 701.36386693 116.4921875 710.49218725 116.4921875v0.1054685z" fill="#00b388" p-id="25416"></path></svg>