<?xml version="1.0" standalone="no"?><!DOCTYPE svg PUBLIC "-//W3C//DTD SVG 1.1//EN" "http://www.w3.org/Graphics/SVG/1.1/DTD/svg11.dtd"><svg t="1644457682648" class="icon" viewBox="0 0 1024 1024" version="1.1" xmlns="http://www.w3.org/2000/svg" p-id="2702" xmlns:xlink="http://www.w3.org/1999/xlink" width="128" height="128"><defs><style type="text/css"></style></defs><path d="M583.2 208H440.8c-5.6 0-10.4-2.4-13.6-7.2-3.2-4.8-3.2-10.4-1.6-15.2l71.2-172c2.4-5.6 8-9.6 14.4-9.6s12 4 14.4 9.6l71.2 172c2.4 4.8 1.6 10.4-1.6 15.2-1.6 4.8-7.2 7.2-12 7.2z m-118.4-32h94.4L512 61.6 464.8 176zM512 1020c-6.4 0-12-4-14.4-9.6l-71.2-172c-2.4-4.8-1.6-10.4 1.6-15.2 3.2-4.8 8-7.2 13.6-7.2H584c5.6 0 10.4 2.4 13.6 7.2 3.2 4.8 3.2 10.4 1.6 15.2L528 1010.4c-4 5.6-9.6 9.6-16 9.6zM464.8 848l47.2 114.4 47.2-114.4H464.8zM788.8 352c-4 0-8-1.6-11.2-4.8L676.8 247.2c-4-4-5.6-8.8-4-14.4s4.8-9.6 9.6-12l172-71.2c5.6-2.4 12.8-0.8 17.6 3.2 4.8 4.8 5.6 11.2 3.2 17.6l-71.2 172c-2.4 4.8-6.4 8.8-12 9.6h-3.2z m-72.8-111.2l66.4 66.4 47.2-114.4-113.6 48zM164 876c-4 0-8-1.6-11.2-4.8-4.8-4.8-5.6-11.2-3.2-17.6l71.2-172c2.4-4.8 6.4-8.8 12-9.6 5.6-0.8 10.4 0.8 14.4 4l100.8 100.8c4 4 5.6 8.8 4 14.4s-4.8 9.6-9.6 12l-172 71.2c-2.4 0.8-4 1.6-6.4 1.6z m76.8-160l-47.2 114.4 114.4-47.2-67.2-67.2zM832 599.2c-3.2 0-6.4-0.8-8.8-2.4-4.8-3.2-7.2-8-7.2-13.6V440.8c0-5.6 2.4-10.4 7.2-13.6 4.8-3.2 10.4-3.2 15.2-1.6l172 71.2c5.6 2.4 9.6 8 9.6 14.4s-4 12-9.6 14.4l-172 71.2c-2.4 1.6-4 2.4-6.4 2.4z m16-134.4v94.4l114.4-47.2-114.4-47.2zM192 599.2c-2.4 0-4 0-6.4-1.6L13.6 526.4C8 524 4 518.4 4 512s4-12 9.6-14.4l172-71.2c4.8-2.4 10.4-1.6 15.2 1.6 4.8 3.2 7.2 8 7.2 13.6V584c0 5.6-2.4 10.4-7.2 13.6-2.4 0.8-5.6 1.6-8.8 1.6zM61.6 512L176 559.2V464.8L61.6 512zM860 876c-2.4 0-4 0-6.4-1.6l-172-71.2c-4.8-2.4-8.8-6.4-9.6-12s0.8-10.4 4-14.4l100.8-100.8c4-4 8.8-5.6 14.4-4 5.6 0.8 9.6 4.8 12 9.6l71.2 172c2.4 5.6 0.8 12.8-3.2 17.6-3.2 3.2-7.2 4.8-11.2 4.8z m-144-92.8l114.4 47.2-47.2-114.4-67.2 67.2zM235.2 352H232c-5.6-0.8-9.6-4.8-12-9.6l-71.2-172c-2.4-5.6-0.8-12.8 3.2-17.6 4.8-4.8 11.2-5.6 17.6-3.2l172 71.2c4.8 2.4 8.8 6.4 9.6 12s-0.8 10.4-4 14.4L247.2 347.2c-3.2 3.2-7.2 4.8-12 4.8z m-41.6-158.4l47.2 114.4 66.4-66.4-113.6-48zM512 742.4c-127.2 0-230.4-103.2-230.4-230.4S384.8 281.6 512 281.6 742.4 384.8 742.4 512 639.2 742.4 512 742.4z m0-428.8c-109.6 0-198.4 88.8-198.4 198.4S402.4 710.4 512 710.4 710.4 621.6 710.4 512 621.6 313.6 512 313.6z" p-id="2703" fill="#ff6600"></path><path d="M662.4 520c-4.8 0-8-3.2-8-8 0-78.4-64-142.4-142.4-142.4-4.8 0-8-3.2-8-8s3.2-8 8-8c87.2 0 158.4 71.2 158.4 158.4 0 4.8-4 8-8 8z" p-id="2704" fill="#ff6600"></path></svg>