<?xml version="1.0" standalone="no"?><!DOCTYPE svg PUBLIC "-//W3C//DTD SVG 1.1//EN" "http://www.w3.org/Graphics/SVG/1.1/DTD/svg11.dtd"><svg t="1642833020360" class="icon" viewBox="0 0 1024 1024" version="1.1" xmlns="http://www.w3.org/2000/svg" p-id="45254" xmlns:xlink="http://www.w3.org/1999/xlink" width="128" height="128"><defs><style type="text/css"></style></defs><path d="M512.292571 76.141714a435.785143 435.785143 0 0 1 308.150858 743.862857 435.785143 435.785143 0 1 1-616.228572-616.228571 432.859429 432.859429 0 0 1 308.077714-127.634286m0-75.337143a511.122286 511.122286 0 1 0 0.073143 1022.244572 511.122286 511.122286 0 0 0 0-1022.244572z" fill="#e91a4c" p-id="45255"></path><path d="M512.292571 447.341714a64.512 64.512 0 1 0 0 129.097143 64.512 64.512 0 0 0 0-129.097143z m-226.011428 0a64.512 64.512 0 1 0 0 129.097143 64.512 64.512 0 0 0 0-129.097143z m452.022857 0a64.512 64.512 0 1 0-0.073143 129.097143 64.512 64.512 0 0 0 0-129.097143z" fill="#e91a4c" p-id="45256"></path></svg>